<mxfile host="app.diagrams.net" modified="2024-06-19T12:50:36.028Z" agent="Mozilla/5.0 (Windows NT 10.0; Win64; x64) AppleWebKit/537.36 (KHTML, like Gecko) Chrome/125.0.0.0 Safari/537.36" version="24.5.5" etag="_slPj5jdwZ86-qRv-p5K" type="github">
  <diagram name="ページ1" id="ZoHOUadQ-MaIt7T0hVHs">
    <mxGraphModel>
      <root>
        <mxCell id="0" />
        <mxCell id="1" parent="0" />
      </root>
    </mxGraphModel>
  </diagram>
</mxfile>
